# xmcd
#
# Track frame offsets: 
#        150
#        15346
#        29786
#        41830
#        54152
#        75724
#        90108
#        106248
#        120549
#        136772
#        149303
#        161096
#        172384
#        186576
#        200416
#        216178
#        230399
#        246790
#        260656
#
# Disc length: 3695 seconds
#
# Revision: 3
# Processed by: cddbd v1.5.2PL0 Copyright (c) Steve Scherf et al.
# Submitted via: ExactAudioCopyFreeDBPlugin 1.0
#
DISCID=0a0e6d13
DTITLE=Various Artist - CD 20 Symphonic Swing - Maestro, give me the g
DTITLE=roove
DYEAR=2008
DGENRE=Jazz
TTITLE0=Charlie Parker - Dancing in the Dark
TTITLE1=Sarah Vaughan - While You Are Gone
TTITLE2=Chet Baker - I'm Thru with Love
TTITLE3=Billie Holiday - You Better go Now
TTITLE4=Dizzy Gillespie - Alone Together
TTITLE5=Peggy Lee - Don't Smoke in Bed
TTITLE6=Charlie Parker - Temptation
TTITLE7=Johnny Mercer - One for my Baby
TTITLE8=Chet Baker - Why Shouldn't I
TTITLE9=Lena Horne - Moanin' Low
TTITLE10=Frank Sinatra - That Old Black Magic
TTITLE11=Dizzy Gillespie - Lullaby of the Leaves
TTITLE12=Billie Holiday - Good Morning Heartache
TTITLE13=Django Reinhardt - Djangologie
TTITLE14=Dinah Shore - I Love You for Sentimental Reasons
TTITLE15=Charlie Parker - Out of Nowhere
TTITLE16=Chet Baker - I Marreied an Angel
TTITLE17=Sarah Vaughan - Just Friend
TTITLE18=Frank Sinatra - Night and Day
EXTD=YEAR: 2008
EXTT0=
EXTT1=
EXTT2=
EXTT3=
EXTT4=
EXTT5=
EXTT6=
EXTT7=
EXTT8=
EXTT9=
EXTT10=
EXTT11=
EXTT12=
EXTT13=
EXTT14=
EXTT15=
EXTT16=
EXTT17=
EXTT18=
PLAYORDER=
